<?xml version="1.0" ?><!DOCTYPE svg  PUBLIC '-//W3C//DTD SVG 1.1//EN'  'http://www.w3.org/Graphics/SVG/1.1/DTD/svg11.dtd'><svg height="512px" style="enable-background:new 0 0 512 512;" version="1.1" viewBox="0 0 512 512" width="512px" xml:space="preserve" xmlns="http://www.w3.org/2000/svg" xmlns:xlink="http://www.w3.org/1999/xlink"><g id="_x37_05_x2C__Automation_x2C__factory_x2C__hand_x2C__mechanism_x2C__package"><g><path d="M269.483,90.49c-0.344,0.178-0.678,0.381-1.018,0.584l-0.344,0.203    l-0.281,0.153l-0.063,0.051l-0.305,0.179l-0.039,0.025c-0.562,0.355-1.108,0.712-1.643,1.095l-0.14,0.077l-0.18,0.152    l-0.315,0.229l-0.204,0.128l-0.115,0.102l-0.214,0.177l-0.092,0.052l-0.253,0.204l-0.053,0.051l-0.28,0.229h-0.024l-0.306,0.255    l0,0l-0.291,0.254l-0.039,0.024l-0.828,0.739l-0.126,0.102l-0.154,0.152l-0.151,0.152l-0.126,0.127l-0.179,0.152l-0.103,0.102    l-0.203,0.203l-0.077,0.078l-0.218,0.229l-0.049,0.052l-0.242,0.254h-0.024l-0.257,0.279l-0.011,0.025l-0.256,0.255l-0.038,0.051    l-0.215,0.228l-0.063,0.078l-0.193,0.229l-0.077,0.102l-0.165,0.179l-0.112,0.126l-0.141,0.152l-0.13,0.18l-0.102,0.126    l-0.165,0.179l-0.073,0.127l-0.039,0.051l-0.203,0.23l-0.193,0.254l-0.038,0.051l-0.215,0.279l-0.014,0.025l-0.229,0.307v0.023    l-0.217,0.281l-0.039,0.051l-0.176,0.254l-0.053,0.078l-0.164,0.229l-0.077,0.127l-0.127,0.204l-0.102,0.126l-0.116,0.18    l-0.102,0.177l-0.088,0.128l-0.14,0.229l-0.063,0.102l-0.154,0.254l-0.049,0.078l-0.165,0.279l-0.025,0.025l-0.179,0.33h-0.014    l-0.179,0.332l-0.01,0.024l-0.179,0.306l-0.024,0.051l-0.141,0.28l-0.052,0.075l-0.126,0.256l-0.063,0.127l-0.116,0.203    l-0.074,0.153l-0.091,0.179l-0.087,0.203l-0.063,0.127l-0.116,0.254l-0.049,0.102l-0.13,0.256l-0.025,0.076l-0.14,0.306    l-0.011,0.051l-0.154,0.33l0,0l-0.141,0.356l-0.024,0.025l-0.116,0.307l-0.039,0.074l-0.102,0.281l-0.039,0.102l-0.102,0.255    l-0.049,0.126l-0.077,0.23l-0.063,0.152l-0.063,0.179l-0.077,0.229l-0.049,0.128l-0.077,0.254l-0.039,0.127l-0.088,0.254    l-0.028,0.102l-0.102,0.307l-0.011,0.051l-0.102,0.355l-0.116,0.383l0,0l-0.102,0.355l-0.01,0.051l-0.077,0.307l-0.025,0.074    l-0.077,0.307l-0.024,0.102l-0.053,0.256l-0.039,0.152l-0.049,0.229l-0.039,0.152l-0.039,0.203l-0.053,0.204l-0.035,0.179    l-0.039,0.229l-0.028,0.152l-0.049,0.254l-0.024,0.103l-0.053,0.306l-0.014,0.076l-0.049,0.33v0.051l-0.063,0.357v0.025    l-0.053,0.356v0.024l-0.049,0.356v0.051l-0.039,0.331l-0.014,0.078l-0.039,0.305v0.102l-0.024,0.279l-0.011,0.129l-0.028,0.254    l-0.011,0.178l-0.028,0.406l-0.011,0.18l-0.014,0.229v0.152l-0.01,0.254l-0.028,0.841v0.024v0.383l0,0v0.383v0.023v0.357v0.076    l0.014,0.306v0.103l0.014,0.278l0.01,0.128l0.014,0.254v0.153l0.011,0.228l0.014,0.204l0.014,0.179l0.025,0.229    c0.049,0.688,0.126,1.375,0.228,2.063l0,0l0.053,0.382l0.01,0.051l0.053,0.33l0.011,0.077c0.091,0.533,0.207,1.094,0.319,1.652    l0.039,0.18l0.052,0.229l0.126,0.51l0.077,0.306l0.025,0.075l0.077,0.332l0.01,0.051l0.102,0.356v0.024l0.116,0.383l0,0    l0.112,0.355l0.014,0.051l0.102,0.33l0.024,0.078l0.102,0.278l0.039,0.128l0.091,0.255l0.049,0.126l0.078,0.254l0.063,0.153    l0.077,0.204l0.074,0.203l0.067,0.179l0.01,0.026l0.014,0.051l0.01,0.051l0.014,0.025c0.586,1.475,1.285,2.951,2.088,4.377    l43.236,74.873c2.675-4.785,5.994-9.188,9.848-13.031c6.949-6.947,15.614-12.164,25.301-14.938l0.063-0.026l0.446-0.126    c0.685-0.179,1.372-0.356,2.06-0.536l0.281-0.051l0.242-0.051l1.576-0.33l0.318-0.076l0.204-0.025l0.509-0.102h0.014l0.533-0.102    l0.18-0.026l0.354-0.051l0.368-0.075l0.165-0.026l0.522-0.075h0.039l0.509-0.078l0.218-0.023l0.316-0.027l0.42-0.051l0.117-0.024    l0.543-0.051h0.066l0.471-0.051l0.268-0.026l0.28-0.025l0.456-0.051h0.092l0.543-0.025l0.116-0.025l0.432-0.025h0.306l0.242-0.025    l0.509-0.025h0.038l0.548-0.025h0.165h0.396h0.354h0.189h0.562h0.154h0.15h0.166h0.154h0.126h0.038h0.151h0.154h0.165h0.15h0.092    h0.063l0.165,0.025h0.154h0.15h0.165h0.053l0.103,0.025h0.15h0.165h0.154l0.151,0.025h0.014h0.154h0.15l0.154,0.025h0.166    l0.305,0.025h0.15l0.166,0.025c2.635,0.178,5.242,0.561,7.787,1.094l-46.343-80.268c-4.759-8.219-12.455-13.768-21.019-16.058    c-3.833-1.044-7.826-1.4-11.823-1.095h-0.05l-0.028,0.025h-0.073l-0.474,0.025l-0.112,0.026h-0.116h-0.038l-0.074,0.024    l-0.586,0.051l-0.115,0.026h-0.05l-0.765,0.126h-0.063h-0.053l-0.112,0.027l-0.115,0.023l-0.699,0.102l-0.115,0.027l-0.112,0.024    h-0.028l-0.088,0.026l-0.115,0.024l-0.471,0.102l-0.112,0.026l-0.231,0.051l-0.112,0.025l-0.102,0.025h-0.015l-0.115,0.025    l-1.043,0.254l-0.049,0.026h-0.066l-0.112,0.051l-0.229,0.051l0,0l-0.115,0.024l-0.116,0.051l-0.112,0.027l-0.066,0.023h-0.05    l-0.344,0.103l-0.014,0.026l-0.088,0.024l-0.116,0.026l-0.112,0.051l-0.091,0.024h-0.024l-0.102,0.026l-0.112,0.051l-0.116,0.025    l-0.053,0.025l-0.049,0.025l-0.116,0.025l-0.102,0.051l-0.112,0.025h-0.014l-0.088,0.051l-0.116,0.025l-0.115,0.052l-0.088,0.024    h-0.015l-0.112,0.053l-0.115,0.051l-0.102,0.024l-0.05,0.026l-0.168,0.051l-0.112,0.051l-0.33,0.127l-0.102,0.051l-0.103,0.026    l-0.014,0.024l-0.102,0.026l-0.649,0.278l-0.024,0.027l-0.077,0.023l-0.116,0.052l-0.102,0.051l-0.33,0.152l-0.102,0.052    l-0.063,0.025l-0.053,0.025l-0.315,0.152h-0.014l-0.088,0.051l-0.306,0.128l-0.014,0.024l-0.534,0.255l-0.102,0.077l-0.102,0.051    H269.483z M320.828,212.01c7.481-7.482,17.813-12.113,29.227-12.113s21.744,4.631,29.227,12.113s12.115,17.814,12.115,29.242    c0,11.402-4.633,21.734-12.115,29.216c-7.482,7.482-17.813,12.113-29.227,12.113c-11.325,0-21.58-4.556-29.052-11.937    l-0.189-0.177c-7.482-7.481-12.101-17.813-12.101-29.216C308.713,229.824,313.346,219.492,320.828,212.01z M350.055,206.156    c-9.697,0-18.478,3.92-24.826,10.256c-6.338,6.363-10.27,15.145-10.27,24.84c0,9.67,3.932,18.451,10.283,24.787l0.151,0.179    c6.338,6.235,15.042,10.104,24.661,10.104c9.683,0,18.463-3.92,24.802-10.283c6.349-6.336,10.279-15.117,10.279-24.787    c0-9.695-3.931-18.477-10.269-24.84C368.518,210.076,359.737,206.156,350.055,206.156z M267.725,103.112    c4.43-4.427,10.564-7.177,17.334-7.177c6.767,0,12.9,2.75,17.33,7.177c4.439,4.429,7.188,10.588,7.188,17.331    c0,6.77-2.748,12.903-7.188,17.356c-4.43,4.429-10.563,7.177-17.33,7.177c-6.77,0-12.904-2.748-17.334-7.177    c-4.439-4.453-7.188-10.587-7.188-17.356C260.537,113.7,263.285,107.541,267.725,103.112z M285.059,102.196    c-5.04,0-9.609,2.035-12.919,5.345c-3.295,3.308-5.341,7.863-5.341,12.902c0,5.064,2.035,9.62,5.331,12.928    c3.319,3.283,7.889,5.345,12.929,5.345c5.036,0,9.605-2.062,12.915-5.345c3.295-3.308,5.345-7.888,5.345-12.928    c0-5.039-2.05-9.595-5.345-12.902C294.664,104.231,290.095,102.196,285.059,102.196z M164.936,40.125    c3.703-3.689,8.83-5.98,14.48-5.98c5.65,0,10.778,2.291,14.48,5.98c3.692,3.717,5.994,8.832,5.994,14.48    c0,5.65-2.302,10.792-5.994,14.482c-3.703,3.715-8.83,6.004-14.48,6.004c-5.65,0-10.777-2.289-14.48-6.004    c-3.703-3.69-5.994-8.832-5.994-14.482C158.941,48.957,161.233,43.842,164.936,40.125z M179.416,40.38    c-3.917,0-7.482,1.604-10.051,4.175c-2.569,2.568-4.172,6.133-4.172,10.051c0,3.92,1.604,7.482,4.172,10.053    c2.569,2.57,6.135,4.175,10.051,4.175c3.92,0,7.482-1.604,10.055-4.175c2.569-2.57,4.173-6.133,4.173-10.053    c0-3.918-1.604-7.482-4.173-10.051C186.898,41.983,183.336,40.38,179.416,40.38z M334.213,443.346V297.521h-15.231v145.824    H334.213z M365.896,297.521v145.824h15.231V297.521H365.896z M340.459,297.521v145.824h19.177V297.521H340.459z M333.359,224.557    c4.275-4.274,10.182-6.922,16.695-6.922c6.503,0,12.406,2.647,16.681,6.922c4.278,4.276,6.925,10.18,6.925,16.695    c0,6.49-2.646,12.393-6.91,16.67c-4.289,4.273-10.192,6.922-16.695,6.922c-6.514,0-12.42-2.648-16.681-6.898    c-4.288-4.301-6.935-10.203-6.935-16.693C326.439,234.736,329.086,228.833,333.359,224.557z M350.055,223.895    c-4.797,0-9.135,1.934-12.279,5.064c-3.142,3.157-5.078,7.482-5.078,12.293c0,4.785,1.937,9.109,5.066,12.267    c3.156,3.131,7.494,5.064,12.291,5.064c4.783,0,9.125-1.934,12.266-5.064c3.145-3.157,5.078-7.481,5.078-12.267    c0-4.811-1.934-9.136-5.064-12.293C359.18,225.828,354.838,223.895,350.055,223.895z M276.365,111.765    c2.239-2.239,5.307-3.612,8.693-3.612c3.383,0,6.45,1.373,8.676,3.612c2.238,2.241,3.614,5.319,3.614,8.679    c0,3.385-1.376,6.465-3.601,8.704c-2.239,2.214-5.307,3.612-8.689,3.612c-3.387,0-6.454-1.398-8.693-3.612    c-2.225-2.239-3.614-5.319-3.614-8.704C272.751,117.084,274.141,114.006,276.365,111.765z M285.059,114.412    c-1.667,0-3.184,0.662-4.278,1.756s-1.769,2.621-1.769,4.275c0,1.68,0.674,3.182,1.758,4.275c1.105,1.095,2.622,1.782,4.289,1.782    s3.18-0.688,4.274-1.757c1.095-1.119,1.769-2.621,1.769-4.301c0-1.654-0.674-3.182-1.758-4.275    C288.238,115.074,286.726,114.412,285.059,114.412z M173.13,48.32c1.604-1.578,3.832-2.596,6.285-2.596    c2.443,0,4.686,1.018,6.286,2.596c1.604,1.628,2.597,3.843,2.597,6.285c0,2.469-0.993,4.684-2.597,6.287    c-1.6,1.603-3.843,2.596-6.286,2.596c-2.442,0-4.682-0.993-6.285-2.596c-1.604-1.604-2.594-3.843-2.594-6.287    C170.537,52.163,171.526,49.948,173.13,48.32z M179.416,51.986c-0.723,0-1.386,0.305-1.856,0.763    c-0.47,0.482-0.765,1.144-0.765,1.856c0,0.738,0.295,1.4,0.765,1.858c0.47,0.484,1.134,0.763,1.856,0.763    c0.727,0,1.39-0.278,1.86-0.763c0.47-0.458,0.761-1.12,0.761-1.858c0-0.713-0.291-1.374-0.761-1.856    C180.792,52.291,180.128,51.986,179.416,51.986z M200.627,214.581v-13.31h-8.752h-0.088h-51.154h-0.077h-8.753v13.31H200.627z     M188.667,187.453h-4.337h-0.091h-36.046h-0.078h-4.352v7.557h44.904V187.453z M181.111,181.191V94.815l-20.31-12.724    l-0.179-0.102l-0.165-0.128h-0.025l-0.154-0.103l-0.179-0.126h-0.025l-0.151-0.102l-0.168-0.128l-0.035-0.025l-0.13-0.076    l-0.175-0.127l-0.053-0.026l-0.116-0.075l-0.165-0.128l-0.049-0.052l-0.126-0.074l-0.168-0.129l-0.063-0.024l-0.102-0.077    l-0.151-0.127l-0.077-0.052l-0.102-0.075l-0.154-0.129L158,80.156l-0.077-0.075l-0.165-0.128l-0.088-0.051l-0.063-0.051    l-0.165-0.127l-0.102-0.102l-0.066-0.051l-0.151-0.129l-0.116-0.074l-0.039-0.051l-0.151-0.129l-0.126-0.102l-0.028-0.024    l-0.151-0.128l-0.141-0.102l-0.024-0.025l-0.14-0.152l-0.155-0.102v-0.027l-0.151-0.125l-0.154-0.129l0,0l-0.151-0.152    l-0.154-0.127l0,0l-0.141-0.127l-0.137-0.153l-0.028-0.024l-0.126-0.102l-0.151-0.152l-0.028-0.027l-0.112-0.102l-0.14-0.152    l-0.039-0.025l-0.102-0.102l-0.14-0.152l-0.049-0.051l-0.091-0.102l-0.14-0.129l-0.049-0.074l-0.091-0.078l-0.14-0.152    l-0.063-0.051l-0.063-0.077l-0.141-0.153l-0.063-0.075l-0.077-0.077l-0.126-0.152l-0.077-0.076l-0.049-0.051l-0.126-0.152    l-0.102-0.102l-0.039-0.051l-0.14-0.152l-0.088-0.129l-0.039-0.024l-0.13-0.152l-0.102-0.128l-0.011-0.025l-0.14-0.152    l-0.102-0.128l-0.014-0.024l-0.126-0.152l-0.116-0.153l-0.126-0.152l-0.126-0.153v-0.025l-0.116-0.127l-0.112-0.152v107.752    H181.111z M188.986,229.139c1.73,0,3.13,1.398,3.13,3.104c0,1.73-1.4,3.131-3.13,3.131h-71.426v8.093h97.308v-22.624h-11.034    h-0.077h-75.086h-0.077h-11.034v8.297H188.986z M427.499,464.8c1.729,0,3.127,1.398,3.127,3.13c0,1.73-1.397,3.129-3.127,3.129    H181.708c-1.73,0-3.13-1.398-3.13-3.129c0-1.731,1.4-3.13,3.13-3.13H427.499z M283.567,479.764c1.729,0,3.13,1.398,3.13,3.104    c0,1.73-1.4,3.131-3.13,3.131H113.479c-1.719,0-3.13-1.4-3.13-3.131c0-1.706,1.411-3.104,3.13-3.104H283.567z M96.068,479.764    c1.734,0,3.131,1.398,3.131,3.104c0,1.73-1.397,3.131-3.131,3.131h-21.26c-1.72,0-3.12-1.4-3.12-3.131    c0-1.706,1.4-3.104,3.12-3.104H96.068z M437.182,479.305c1.73,0,3.13,1.399,3.13,3.13c0,1.706-1.399,3.131-3.13,3.131h-80.6    c-1.716,0-3.131-1.425-3.131-3.131c0-1.73,1.415-3.13,3.131-3.13H437.182z M114.43,244.84c1.72,0,3.13,1.4,3.13,3.131    c0,1.729-1.411,3.13-3.13,3.13h-3.13v4.301h3.13c1.72,0,3.13,1.425,3.13,3.131c0,1.729-1.411,3.13-3.13,3.13h-3.13v4.326h3.13    c1.72,0,3.13,1.4,3.13,3.131c0,1.729-1.411,3.13-3.13,3.13h-3.13v4.301h3.13c1.72,0,3.13,1.4,3.13,3.13    c0,1.73-1.411,3.131-3.13,3.131h-3.13v4.326h3.13c1.72,0,3.13,1.4,3.13,3.13c0,1.706-1.411,3.131-3.13,3.131h-3.13v4.301h3.13    c1.72,0,3.13,1.4,3.13,3.13c0,1.73-1.411,3.131-3.13,3.131h-3.13v4.326h3.13c1.72,0,3.13,1.399,3.13,3.13    c0,1.706-1.411,3.106-3.13,3.106h-3.13v20.205h-3.854L88.79,298.359v-53.748l12.038-23.77H111.3v11.325v0.075v0.102v12.496H114.43    z M221.129,314.521h-3.13c-1.73,0-3.13-1.4-3.13-3.106c0-1.73,1.4-3.13,3.13-3.13h3.13v-4.326h-3.13c-1.73,0-3.13-1.4-3.13-3.131    c0-1.729,1.4-3.13,3.13-3.13h3.13v-4.301h-3.13c-1.73,0-3.13-1.425-3.13-3.131c0-1.729,1.4-3.13,3.13-3.13h3.13v-4.326h-3.13    c-1.73,0-3.13-1.4-3.13-3.131c0-1.729,1.4-3.13,3.13-3.13h3.13v-4.301h-3.13c-1.73,0-3.13-1.4-3.13-3.13    c0-1.73,1.4-3.131,3.13-3.131h3.13v-4.326h-3.13c-1.73,0-3.13-1.4-3.13-3.13c0-1.706,1.4-3.131,3.13-3.131h3.13v-4.301h-3.13    c-1.73,0-3.13-1.4-3.13-3.13c0-1.73,1.4-3.131,3.13-3.131h3.13v-23.998h10.473l12.023,23.77v53.748l-18.653,36.367h-3.843V314.521    z M350.055,188.979l-0.495,0.025h-0.179h-0.319h-0.354h-0.141l-0.498,0.025h-0.024l-0.456,0.025h-0.218l-0.281,0.026l-0.382,0.024    h-0.102l-0.496,0.026h-0.063l-0.422,0.051l-0.242,0.024h-0.241l-0.418,0.051h-0.063l-0.484,0.051l-0.102,0.027l-0.383,0.051    l-0.266,0.023l-0.219,0.027l-0.432,0.075h-0.038l-0.484,0.051l-0.126,0.026l-0.344,0.051l-0.306,0.051l-0.636,0.127h-0.014    l-0.471,0.076l-0.164,0.025l-0.306,0.076l-0.33,0.052l-0.14,0.024c-0.587,0.128-1.173,0.281-1.756,0.408l-0.102,0.025    c-9.381,2.316-17.765,7.201-24.408,13.845c-9.466,9.467-15.344,22.522-15.344,36.901v202.094h14.912V294.391    c0-1.706,1.4-3.131,3.131-3.131h21.4h0.092h25.422h0.078h21.414c1.721,0,3.131,1.425,3.131,3.131v148.955h14.912V241.252    c0-11.428-3.703-22.014-9.975-30.643V29.132c0-1.706-1.4-3.13-3.13-3.13l-211.041,0.126h-0.902h-0.102l-0.154,0.026h-0.074h-0.014    c-2.099,0.051-4.187,0.381-6.223,0.94c-6.44,1.757-12.318,5.905-16.07,11.911l-0.523,0.865l-0.053,0.077    c-3.601,6.337-4.274,13.462-2.516,19.976c0.432,1.604,0.99,3.131,1.677,4.633h0.014l0.382,0.814l0.049,0.077l0.039,0.075    c0.228,0.458,0.484,0.942,0.765,1.374v0.026l0.509,0.839l0.049,0.077l0.102,0.127l0.024,0.076l0.063,0.076l0.102,0.154    l0.028,0.051l0.175,0.254l0.014,0.025l0.077,0.128l0.102,0.126l0.112,0.152l0.091,0.129l0.011,0.024l0.102,0.128l0.091,0.127    l0.011,0.025l0.116,0.127l0.063,0.102l0.039,0.051l0.102,0.152l0.063,0.078l0.039,0.051l0.116,0.126l0.063,0.077l0.267,0.356    l0.116,0.126l0.039,0.051l0.074,0.078l0.116,0.152l0.024,0.024l0.077,0.102l0.242,0.255l0.112,0.152h0.014l0.116,0.128    l0.102,0.126h0.011l0.116,0.129l0.102,0.126h0.025l0.116,0.128l0.102,0.102l0.025,0.025l0.116,0.127l0.102,0.103l0.025,0.026    l0.126,0.126l0.383,0.383l0.126,0.126l0.063,0.051l0.066,0.078l0.137,0.126l0.039,0.026l0.091,0.075l0.14,0.128l0.025,0.025    l0.102,0.102l0.126,0.128h0.024l0.116,0.102l0.141,0.126l0,0l0.126,0.129l0.141,0.102l0,0l0.14,0.126l0.126,0.103l0,0l0.154,0.127    l0.102,0.076l0.039,0.026l0.137,0.102l0.102,0.102l0.039,0.024l0.14,0.102l0.102,0.078l0.052,0.051l0.141,0.102l0.074,0.051    l0.063,0.051l0.155,0.102l0.063,0.051l0.077,0.076l0.141,0.102l0.063,0.026l0.088,0.075l0.154,0.102l0.049,0.027l0.102,0.074    l0.154,0.103l0.024,0.026l0.126,0.075l0.154,0.104l0.025,0.024l0.126,0.078l0.154,0.102l0,0l0.151,0.102l0.154,0.102    l21.517,13.463c0.189,0.102,0.393,0.228,0.562,0.355l59.321,37.155l-0.053-0.306l-0.049-0.33l-0.014-0.076l-0.025-0.255    l-0.039-0.255l-0.01-0.075l-0.039-0.306l-0.014-0.102l-0.024-0.229l-0.039-0.255v-0.075l-0.039-0.308l-0.014-0.125l-0.011-0.204    l-0.024-0.28v-0.051l-0.091-1.297l-0.01-0.129l-0.014-0.178l-0.014-0.66l-0.011-0.153v-0.179l-0.014-0.306    c0-0.763,0-1.526,0.039-2.265l0.014-0.204v-0.126l0.024-0.332v-0.051l0.01-0.255l0.053-0.661v-0.051l0.126-1.222l0.024-0.255    l0.014-0.076c0.063-0.51,0.141-1.043,0.218-1.578l0.049-0.279v-0.051l0.179-0.941l0.063-0.307l0.025-0.152l0.039-0.179    l0.063-0.306l0,0l0.077-0.305c0.116-0.533,0.242-1.068,0.383-1.603l0.126-0.458l0.039-0.128l0.088-0.306l0.014-0.051l0.179-0.56    l0.088-0.306l0.014-0.051l0.087-0.254l0.063-0.23l0.039-0.075l0.102-0.306l0.025-0.076l0.231-0.636l0.102-0.28l0.049-0.153    l0.116-0.306l0.039-0.102l0.141-0.355l0.024-0.051l0.165-0.381v-0.027l0.179-0.406l0.011-0.025l0.168-0.382l0.024-0.077    l0.151-0.33l0.053-0.102l0.126-0.306l0.077-0.153l0.112-0.229l0.091-0.204l0.102-0.204l0.126-0.228l0.077-0.179l0.141-0.279    l0.049-0.102l0.179-0.332l0.039-0.051l0.189-0.381l0.014-0.026l0.218-0.381h0.01l0.204-0.382l0.039-0.051l0.179-0.332l0.063-0.102    l0.165-0.279l0.087-0.152l0.155-0.23l0.102-0.178l0.126-0.203l0.14-0.203l0.102-0.152l0.165-0.255l0.077-0.128l0.204-0.306    l0.052-0.075l0.229-0.332l0.024-0.024l0.256-0.356l0,0l0.252-0.383l0.039-0.023l0.228-0.332l0.063-0.078l0.305-0.38l0.179-0.255    l0.126-0.152l0.155-0.18l0.151-0.203l0.13-0.152l0.189-0.229l0.087-0.128l0.232-0.255l0.063-0.074l0.253-0.307l1.007-1.094    l0.252-0.279l0.091-0.104l0.228-0.204l0.126-0.152l0.357-0.356l0.151-0.152l0.203-0.178l0.127-0.128l0.242-0.228l0.091-0.078    l0.28-0.278l0.724-0.638l0.024-0.023l1.172-0.967l0.218-0.204l0.176-0.128l0.192-0.152l0.215-0.153l0.14-0.128    c0.499-0.356,0.993-0.737,1.502-1.094h0.015l1.299-0.84l0.267-0.178l0.179-0.102l0.442-0.281l0.179-0.102l0.267-0.152l0.141-0.075    v-0.026l0.115-0.051l0.127-0.076l0.126-0.076l0.092-0.052h0.038l0.369-0.228l0.049-0.027l0.077-0.023l0.393-0.23l0.103-0.051    l0.13-0.051l0.228-0.127h0.015l0.126-0.076l0.368-0.18l0.141-0.075l0.242-0.128h0.039c1.716-0.839,3.471-1.527,5.239-2.086l0,0    l0.13-0.025l0.354-0.128l0.228-0.051c-26.082-16.339-52.551-33.72-78.967-49.524l190.959-0.127v171.197    c-7.875-7.506-18.081-12.598-29.382-14.049h-0.038l-1.271-0.152h-0.102l-0.141-0.024l-0.281-0.026h-0.14l0,0l-0.141-0.024h-0.14    l-0.141-0.026h-0.137l-0.103-0.024h-0.038h-0.141h-0.141l-0.141-0.026h-0.141h-0.063l-0.077-0.024h-0.141h-0.14h-0.138    l-0.14-0.026h-0.028h-0.112h-0.141l-0.154-0.025h-0.127h-0.126h-0.024H351.9h-0.141l-0.14-0.025h-0.141h-0.088h-0.053h-0.151    h-0.14h-0.141h-0.14h-0.039h-0.102l-0.151-0.025h-0.14h-0.141H350.055z M172.063,322.767c5.699,0.89,10.942,3.13,15.396,6.388    l10.002-10.002l7.837,7.838l-10.002,10.002c3.257,4.48,5.499,9.721,6.387,15.422h14.14v11.071h-14.14    c-0.888,5.7-3.13,10.942-6.387,15.423l10.002,10l-7.837,7.838l-10.002-10c-4.454,3.258-9.697,5.496-15.396,6.388v14.124h-2.724    v26.238c0,1.73-1.4,3.131-3.13,3.131c-1.72,0-3.13-1.4-3.13-3.131v-26.238h-2.113v-14.124c-5.689-0.892-10.943-3.13-15.396-6.388    l-10.002,10l-7.84-7.838l10.002-10c-3.257-4.48-5.496-9.723-6.387-15.423h-14.137v-11.071h14.137    c0.891-5.701,3.13-10.941,6.387-15.422l-10.002-10.002l7.84-7.838l10.002,10.002c4.453-3.258,9.696-5.498,15.396-6.388v-14.124    h11.097V322.767z M163.079,359.643c0-1.73,1.411-3.131,3.13-3.131c1.73,0,3.13,1.4,3.13,3.131v15.905    c8.511-1.348,15.014-8.704,15.014-17.61c0-9.85-7.991-17.814-17.839-17.814c-9.851,0-17.842,7.965-17.842,17.814    c0,8.703,6.212,15.906,14.407,17.508V359.643z" style="fill-rule:evenodd;clip-rule:evenodd;"/></g></g><g id="Layer_1"/></svg>