<?xml version="1.0" ?><!DOCTYPE svg  PUBLIC '-//W3C//DTD SVG 1.1//EN'  'http://www.w3.org/Graphics/SVG/1.1/DTD/svg11.dtd'><svg height="512px" style="enable-background:new 0 0 512 512;" version="1.1" viewBox="0 0 512 512" width="512px" xml:space="preserve" xmlns="http://www.w3.org/2000/svg" xmlns:xlink="http://www.w3.org/1999/xlink"><g id="comp_x5F_86-dhl"><g><path d="M197.063,288.487h42.19l16.029-21.706h-42.19L197.063,288.487z M26.001,275.334v4.6h58.793l3.378-4.6H26.001z     M150.272,266.781c-6.254,0-4.313-2.589-3.306-3.954c2.013-2.729,5.462-7.475,7.474-10.134c2.013-2.66,2.013-4.242-2.012-4.242    h-36.656l-29.54,40.108h71.946c23.79,0,37.015-16.173,41.112-21.778H150.272z M378.475,261.823l28.247-38.383h-44.707    l-28.245,38.383H378.475L378.475,261.823z M94.498,266.781H26.001v4.6h65.118L94.498,266.781z M174.278,247.662    c-2.013,2.73-5.39,7.476-7.403,10.207c-1.006,1.437-2.947,3.954,3.306,3.954h32.775c0,0,5.247-7.189,9.703-13.228    c6.039-8.193,0.503-25.155-20.988-25.155h-84.738l-14.663,19.98h80.068C176.362,243.421,176.291,245.002,174.278,247.662z     M26.001,288.487h52.54l3.379-4.601H26.001V288.487z M258.154,288.487h42.192l16.028-21.706h-42.19    C274.112,266.781,258.154,288.487,258.154,288.487z M417.719,288.56h68.28v-4.601h-64.902L417.719,288.56z M433.746,266.781    l-3.378,4.6h55.631v-4.6H433.746L433.746,266.781z M424.044,279.934h61.955v-4.6H427.42L424.044,279.934z M306.024,223.44    l-16.172,21.994h-18.832l16.174-21.994h-42.191l-28.247,38.383h103.212l28.246-38.383H306.024z M330.104,266.781    c0,0-3.093,4.239-4.6,6.254c-5.319,7.186-0.649,15.524,16.674,15.524h67.779l16.026-21.778H330.104L330.104,266.781z"/></g></g><g id="Layer_1"/></svg>