<?xml version="1.0" ?><!DOCTYPE svg  PUBLIC '-//W3C//DTD SVG 1.1//EN'  'http://www.w3.org/Graphics/SVG/1.1/DTD/svg11.dtd'><svg height="512px" style="enable-background:new 0 0 512 512;" version="1.1" viewBox="0 0 512 512" width="512px" xml:space="preserve" xmlns="http://www.w3.org/2000/svg" xmlns:xlink="http://www.w3.org/1999/xlink"><g id="comp_x5F_125-fedex"><g><path d="M447.186,276.413l38.311-43.054h-44.852l-15.595,17.825l-16.172-17.825h-85.316v-11.5h40.323v-34.572H255.21v54.266h-0.36    c-6.899-7.906-15.452-10.637-25.443-10.637c-20.412,0-35.794,13.943-41.184,32.271c-12.938-42.694-70.007-41.4-87.615-10.063    v-17.393H61.22V216.9h43.125v-29.541H26.001v132.538H61.22v-55.703h35.146c-1.078,4.097-1.652,8.483-1.652,13.081    c0,52.542,73.743,65.692,93.58,17.034h-30.187c-10.566,15.022-32.92,6.396-32.92-10.493h61.453    c2.659,21.921,19.694,40.897,43.197,40.897c10.135,0,19.406-4.959,25.085-13.371h0.359v8.555H407.8l15.884-17.969l16.029,17.969    h46.286L447.186,276.413z M126.121,264.479c4.386-18.902,29.974-18.398,33.424,0H126.121z M236.379,299.629    c-24.869,0-24.438-45.139,0-45.139C259.811,254.49,261.175,299.629,236.379,299.629z M356.984,313.355h-67.85V193.684h68.28    v21.707h-40.321v24.365h39.891v20.196h-40.322v32.13h40.322V313.355L356.984,313.355z M323.993,284.75v-17.537h40.323v-31.627    l36.439,40.971l-36.439,40.968V284.75H323.993z M423.611,292.152l-18.76,21.203H377.47l32.773-36.799l-32.773-36.801h28.533    l19.118,21.06l18.399-21.06h27.671l-32.629,36.657l33.062,36.942h-29.109L423.611,292.152L423.611,292.152z"/></g></g><g id="Layer_1"/></svg>