<svg width="501" height="512" viewBox="0 0 501 512" fill="none" xmlns="http://www.w3.org/2000/svg">
<path fill-rule="evenodd" clip-rule="evenodd" d="M172.52 90.0906H341.489V421.907H172.52V90.0906Z" stroke="black" stroke-width="16.718" stroke-miterlimit="2.613"/>
<path fill-rule="evenodd" clip-rule="evenodd" d="M252.745 124.204H261.12C260.767 123.952 260.472 123.646 260.13 123.309C258.677 121.84 258.916 120.167 259.508 119.566C260.1 118.966 261.755 119.667 263.208 121.134C263.577 121.492 263.888 121.867 264.151 122.241V111.853C263.88 112.223 263.582 112.572 263.259 112.897C261.806 114.366 260.151 115.062 259.553 114.464C258.961 113.864 259.651 112.185 261.104 110.724C261.463 110.363 261.8 110.047 262.156 109.784H251.94C252.275 110.031 252.626 110.339 252.953 110.674C254.405 112.132 255.096 113.813 254.504 114.413C253.909 115.014 252.254 114.313 250.801 112.846C250.459 112.509 250.146 112.145 249.863 111.757V122.106C250.116 121.761 250.416 121.421 250.751 121.083C252.203 119.614 253.858 118.918 254.453 119.513C255.048 120.114 255.285 121.787 253.834 123.256C253.5 123.603 253.135 123.92 252.745 124.204V124.204ZM248.498 135.56C249.295 139.512 252.759 142.498 256.908 142.498C261.062 142.498 264.528 139.517 265.322 135.56H248.498ZM265.317 132.072C264.979 130.405 264.157 128.874 262.955 127.671C261.753 126.467 260.224 125.644 258.557 125.304V132.072H265.317ZM255.168 125.328C253.519 125.677 252.008 126.502 250.823 127.701C249.638 128.9 248.829 130.419 248.498 132.072H255.168V125.328ZM254.315 146.208C254.313 145.518 254.585 144.856 255.071 144.366C255.557 143.877 256.218 143.6 256.908 143.597C258.339 143.597 259.503 144.769 259.503 146.208C259.506 146.9 259.234 147.564 258.747 148.055C258.261 148.546 257.599 148.824 256.908 148.827C256.565 148.826 256.227 148.757 255.911 148.625C255.595 148.492 255.309 148.299 255.068 148.055C254.827 147.812 254.637 147.524 254.508 147.207C254.378 146.89 254.313 146.551 254.315 146.208ZM254.315 152.772C254.313 152.082 254.585 151.419 255.071 150.93C255.557 150.44 256.218 150.164 256.908 150.161C258.339 150.161 259.503 151.332 259.503 152.772C259.504 153.114 259.439 153.453 259.309 153.77C259.18 154.087 258.989 154.375 258.748 154.618C258.507 154.861 258.22 155.054 257.904 155.186C257.589 155.319 257.25 155.387 256.908 155.388C256.566 155.387 256.227 155.318 255.912 155.186C255.596 155.053 255.31 154.86 255.069 154.617C254.828 154.374 254.638 154.086 254.508 153.77C254.379 153.453 254.313 153.114 254.315 152.772V152.772ZM254.315 159.343C254.313 159.001 254.378 158.662 254.508 158.345C254.637 158.028 254.827 157.739 255.068 157.496C255.309 157.253 255.595 157.059 255.911 156.927C256.227 156.794 256.565 156.726 256.908 156.724C258.339 156.724 259.503 157.896 259.503 159.343C259.504 160.033 259.232 160.696 258.745 161.185C258.259 161.675 257.598 161.951 256.908 161.954C256.218 161.951 255.557 161.675 255.071 161.185C254.585 160.696 254.313 160.033 254.315 159.343V159.343ZM254.315 165.907C254.313 165.564 254.378 165.225 254.508 164.908C254.637 164.591 254.827 164.303 255.068 164.059C255.309 163.816 255.595 163.623 255.911 163.49C256.227 163.358 256.565 163.289 256.908 163.288C258.339 163.288 259.503 164.456 259.503 165.907C259.504 166.249 259.437 166.587 259.308 166.903C259.178 167.22 258.987 167.507 258.746 167.75C258.505 167.992 258.219 168.185 257.903 168.317C257.588 168.448 257.249 168.517 256.908 168.518C256.566 168.517 256.228 168.448 255.912 168.316C255.597 168.185 255.311 167.992 255.07 167.75C254.829 167.507 254.639 167.219 254.509 166.903C254.38 166.587 254.314 166.248 254.315 165.907V165.907ZM254.05 180.513C254.05 178.919 255.327 177.636 256.908 177.636C258.488 177.636 259.766 178.919 259.766 180.513C259.766 182.11 258.485 183.4 256.908 183.4C255.33 183.4 254.05 182.11 254.05 180.513ZM299.973 188.862C300.974 189.202 302.254 188.086 302.825 186.365C303.402 184.649 303.049 182.975 302.047 182.638C301.04 182.301 299.76 183.414 299.189 185.13C298.613 186.851 298.966 188.516 299.973 188.862ZM213.843 188.862C212.836 189.202 211.561 188.086 210.984 186.365C210.413 184.649 210.764 182.975 211.768 182.638C212.775 182.301 214.052 183.414 214.623 185.13C215.2 186.851 214.849 188.516 213.843 188.862V188.862ZM266.531 139.554C266.528 138.541 266.926 137.568 267.639 136.849C268.352 136.129 269.322 135.722 270.335 135.716C272.43 135.716 274.128 137.437 274.128 139.554C274.128 141.671 272.43 143.385 270.335 143.385C269.833 143.383 269.337 143.283 268.875 143.09C268.412 142.896 267.992 142.614 267.639 142.258C267.286 141.902 267.006 141.48 266.816 141.017C266.626 140.553 266.529 140.056 266.531 139.554V139.554ZM275.403 135.687C275.403 133.567 277.1 131.854 279.196 131.854C281.292 131.854 283 133.57 283 135.687C283 137.809 281.292 139.525 279.196 139.525C277.1 139.525 275.403 137.809 275.403 135.687ZM284.511 132.404C284.511 130.282 286.208 128.566 288.309 128.566C290.405 128.566 292.108 130.282 292.108 132.404C292.108 134.521 290.405 136.237 288.309 136.237C287.808 136.235 287.312 136.135 286.85 135.941C286.387 135.747 285.968 135.464 285.615 135.108C285.262 134.752 284.983 134.33 284.794 133.866C284.604 133.402 284.508 132.905 284.511 132.404V132.404ZM294.11 132.072C294.11 129.955 295.813 128.234 297.909 128.234C300.005 128.234 301.707 129.955 301.707 132.072C301.707 134.192 300.005 135.91 297.909 135.91C295.813 135.91 294.11 134.192 294.11 132.072ZM302.897 135.854C302.897 133.737 304.594 132.016 306.696 132.016C308.791 132.016 310.489 133.737 310.489 135.854C310.489 137.971 308.791 139.687 306.696 139.687C304.594 139.687 302.897 137.974 302.897 135.854ZM309.052 143.435C309.052 141.31 310.749 139.597 312.845 139.597C314.94 139.597 316.648 141.313 316.648 143.435C316.648 145.55 314.94 147.268 312.845 147.268C310.749 147.268 309.052 145.552 309.052 143.435ZM311.291 152.785C311.291 150.668 312.988 148.947 315.084 148.947C317.19 148.947 318.882 150.668 318.882 152.785C318.882 154.905 317.19 156.618 315.084 156.618C314.583 156.615 314.088 156.514 313.626 156.32C313.164 156.126 312.745 155.843 312.393 155.487C312.041 155.131 311.762 154.71 311.573 154.246C311.384 153.782 311.288 153.286 311.291 152.785V152.785ZM310.789 162.385C310.789 160.268 312.486 158.554 314.582 158.554C316.678 158.554 318.385 160.27 318.385 162.385C318.385 164.499 316.678 166.223 314.582 166.223C312.486 166.223 310.789 164.502 310.789 162.385ZM308.281 171.572C308.281 169.455 309.979 167.742 312.08 167.742C314.175 167.742 315.873 169.455 315.873 171.572C315.873 173.689 314.175 175.411 312.08 175.411C309.979 175.411 308.281 173.689 308.281 171.572ZM239.711 139.554C239.711 137.437 241.409 135.716 243.504 135.716C245.6 135.716 247.303 137.437 247.303 139.554C247.303 141.671 245.6 143.385 243.504 143.385C241.409 143.385 239.711 141.671 239.711 139.554ZM230.837 135.687C230.837 133.567 232.542 131.854 234.638 131.854C236.734 131.854 238.431 133.57 238.431 135.687C238.431 137.809 236.734 139.525 234.638 139.525C234.136 139.523 233.64 139.422 233.178 139.227C232.715 139.033 232.295 138.75 231.943 138.393C231.59 138.037 231.31 137.615 231.121 137.15C230.931 136.686 230.834 136.189 230.837 135.687V135.687ZM221.729 132.404C221.729 130.282 223.426 128.566 225.522 128.566C227.626 128.566 229.323 130.282 229.323 132.404C229.323 134.521 227.626 136.237 225.522 136.237C225.021 136.234 224.526 136.133 224.064 135.939C223.602 135.745 223.183 135.462 222.831 135.106C222.479 134.75 222.2 134.329 222.011 133.865C221.822 133.401 221.726 132.905 221.729 132.404V132.404ZM212.132 132.072C212.132 129.955 213.829 128.234 215.925 128.234C218.021 128.234 219.723 129.955 219.723 132.072C219.723 134.192 218.018 135.91 215.925 135.91C215.424 135.907 214.928 135.806 214.466 135.611C214.004 135.417 213.585 135.133 213.233 134.777C212.881 134.421 212.602 133.998 212.413 133.534C212.224 133.07 212.129 132.573 212.132 132.072ZM203.345 135.854C203.345 133.737 205.043 132.016 207.138 132.016C209.234 132.016 210.937 133.737 210.937 135.854C210.937 137.971 209.231 139.687 207.138 139.687C206.637 139.685 206.142 139.584 205.68 139.39C205.219 139.196 204.8 138.913 204.447 138.557C204.095 138.201 203.817 137.779 203.627 137.315C203.438 136.852 203.342 136.355 203.345 135.854V135.854ZM197.191 143.435C197.191 141.31 198.896 139.597 200.989 139.597C203.088 139.597 204.785 141.313 204.785 143.435C204.785 145.55 203.088 147.268 200.989 147.268C198.896 147.268 197.191 145.552 197.191 143.435ZM194.949 152.785C194.949 150.668 196.646 148.947 198.739 148.947C200.843 148.947 202.54 150.668 202.54 152.785C202.54 154.905 200.843 156.618 198.739 156.618C198.239 156.616 197.743 156.514 197.282 156.32C196.82 156.126 196.402 155.843 196.049 155.487C195.697 155.131 195.419 154.709 195.23 154.246C195.041 153.782 194.946 153.286 194.949 152.785V152.785ZM195.451 162.385C195.451 160.268 197.148 158.554 199.252 158.554C201.348 158.554 203.045 160.27 203.045 162.385C203.045 164.499 201.348 166.223 199.252 166.223C198.75 166.22 198.254 166.119 197.792 165.925C197.329 165.731 196.909 165.447 196.557 165.091C196.204 164.734 195.924 164.312 195.735 163.848C195.545 163.383 195.448 162.886 195.451 162.385V162.385ZM197.958 171.572C197.958 169.455 199.656 167.742 201.751 167.742C203.855 167.742 205.552 169.455 205.552 171.572C205.552 173.689 203.855 175.411 201.751 175.411C200.74 175.404 199.772 174.996 199.06 174.277C198.349 173.557 197.953 172.584 197.958 171.572V171.572Z" fill="black"/>
<path fill-rule="evenodd" clip-rule="evenodd" d="M223.79 174.755C222.656 175.53 221.524 179.913 225.607 183.26C226.404 181.411 227.317 181.225 228.17 181.411C229.023 181.597 229.692 182.054 230.154 183.796L235.889 183.353C235.979 181.844 236.651 180.856 237.99 180.489C239.212 180.264 240.309 180.856 241.225 182.274C242.065 179.783 242.211 176.579 241.358 174.765L247.242 174.757V187.178C250.036 182.391 254.002 181.841 254.366 185.85C254.687 189.35 250.397 193.247 246.312 193.247C242.227 193.247 239.419 191.51 236.548 187.008L230.81 187.451C229.777 190.902 224.406 194.288 219.405 192.506C216.987 191.643 215.293 190.344 215.864 188.806C216.533 187.024 218.77 188.474 220.446 189.117C220.446 189.117 218.066 181.164 216.905 177.769C216.597 178.694 215.192 182.088 213.364 181.037C212.371 180.473 213.008 178.136 214.145 174.771L223.79 174.755V174.755ZM228.085 174.755C228.428 175.623 228.839 176.505 229.328 177.4C228.162 175.976 227.182 175.172 226.361 174.768L228.085 174.755ZM236.503 174.755C235.857 175.442 235.328 176.231 234.938 177.089C235.113 176.258 235.262 175.482 235.379 174.763L236.503 174.755ZM253.056 174.755C253.72 175.891 253.887 176.88 253.391 177.355C252.594 178.109 250.379 177.228 248.437 175.379C248.227 175.178 248.023 174.971 247.826 174.757H253.056V174.755ZM266.005 174.755C265.81 174.97 265.606 175.177 265.394 175.376C263.455 177.225 261.24 178.107 260.44 177.352C259.946 176.877 260.114 175.889 260.778 174.76L266.005 174.755ZM272.454 174.755C271.604 176.577 271.748 179.78 272.59 182.272C273.504 180.853 274.598 180.261 275.822 180.487C277.166 180.853 277.836 181.841 277.923 183.35L283.661 183.794C284.118 182.051 284.792 181.592 285.642 181.408C286.492 181.225 287.411 181.408 288.206 183.257C292.283 179.91 291.157 175.528 290.023 174.752H299.694C300.831 178.131 301.468 180.468 300.477 181.034C298.647 182.086 297.239 178.691 296.934 177.767C295.771 181.161 293.391 189.114 293.391 189.114C295.067 188.471 297.298 187.018 297.978 188.803C298.549 190.341 296.852 191.64 294.434 192.503C289.433 194.286 284.065 190.899 283.021 187.449L277.289 187.005C274.42 191.505 271.612 193.244 267.524 193.244C263.442 193.244 259.152 189.348 259.473 185.847C259.837 181.839 263.806 182.389 266.597 187.175V174.755H272.454V174.755ZM278.436 174.755C278.556 175.482 278.702 176.258 278.872 177.089C278.485 176.232 277.957 175.446 277.31 174.763L278.436 174.755V174.755ZM287.454 174.755C286.628 175.172 285.648 175.976 284.487 177.4C284.976 176.505 285.385 175.623 285.727 174.763L287.454 174.755Z" fill="black"/>
<path fill-rule="evenodd" clip-rule="evenodd" d="M214.145 174.754C214.39 174.029 214.669 173.238 214.95 172.406L208.814 174.282C208.814 174.282 204.052 167.713 203.606 156.323C202.934 139.427 214.459 136.59 219.522 136.534C224.956 136.471 227.458 137.889 232.46 139.865C237.467 141.833 240.941 144.79 250.822 145.905L250.153 150.83C240.15 150.83 230.755 143.645 221.415 143.581C211.104 143.512 209.702 153.914 209.829 157.117C209.946 160.321 210.129 163.715 212.265 168.22C212.69 165.628 214.565 157.795 217.33 156.44C225.076 153.234 232.829 155.946 232.829 155.946C241.735 153.173 249.237 153.173 249.237 153.173L249.271 142.938L252.751 141.493V169.325H261.083V141.496L264.566 142.941L264.597 153.175C264.597 153.175 272.098 153.175 281.007 155.949C281.007 155.949 288.764 153.237 296.509 156.443C299.497 157.797 301.147 165.63 301.572 168.223C303.71 163.721 303.891 160.323 304.01 157.12C304.135 153.917 302.73 143.515 292.421 143.584C283.082 143.648 273.687 150.833 263.686 150.833L263.017 145.908C272.901 144.792 276.37 141.836 281.382 139.868C286.384 137.892 288.878 136.473 294.31 136.537C299.378 136.593 310.906 139.43 310.231 156.326C309.779 167.718 305.022 174.284 305.022 174.284L298.889 172.409C299.168 173.24 299.439 174.032 299.694 174.773L290.023 174.76C289.993 174.733 289.957 174.712 289.919 174.699C289.276 174.388 288.482 174.266 287.454 174.776L285.728 174.762C287.916 169.195 286.947 164.48 283.082 161.383C278.303 165.822 277.334 168.215 278.439 174.77L277.313 174.762C276.502 173.939 275.467 173.275 274.293 173.339C273.448 173.387 272.845 173.931 272.457 174.77L266.595 174.762V174.059C266.414 174.298 266.22 174.531 266.008 174.762H260.778C261.181 174.085 261.774 173.339 262.51 172.637C262.993 172.181 263.439 171.777 263.925 171.453H249.906C250.395 171.777 250.844 172.178 251.324 172.637C252.057 173.339 252.652 174.077 253.056 174.77L247.826 174.762C247.62 174.537 247.424 174.302 247.239 174.059V174.762H241.356C240.965 173.931 240.362 173.387 239.517 173.339C238.346 173.275 237.31 173.939 236.5 174.77L235.376 174.762C236.481 168.215 235.512 165.822 230.733 161.383C226.869 164.48 225.899 169.192 228.082 174.77L226.359 174.762C225.331 174.268 224.542 174.388 223.894 174.701C223.856 174.717 223.82 174.737 223.787 174.762H214.145V174.754V174.754ZM297.662 200.358L298.398 193.181C298.398 193.181 295.741 196.047 291.104 195.927C286.466 195.797 282.29 192.44 280.458 189.73C280.088 189.117 279.57 189.082 279.172 189.759C276.364 193.584 273.865 196.387 267.033 196.387C260.201 196.387 257.641 192.076 256.788 190.84C255.928 192.076 253.367 196.387 246.533 196.387C239.703 196.387 237.201 193.584 234.394 189.759C233.995 189.085 233.477 189.117 233.108 189.73C231.281 192.442 227.1 195.8 222.465 195.927C217.824 196.047 215.171 193.181 215.171 193.181L215.904 200.358H297.662V200.358ZM217.37 220.338C214.443 220.338 212.068 218.077 212.068 215.294C212.068 212.505 214.446 210.249 217.37 210.249H296.193C299.128 210.249 301.505 212.507 301.505 215.294C301.505 218.08 299.128 220.338 296.193 220.338H217.37ZM222.924 208.22V202.483H215.904L213.468 205.319L215.904 208.22H222.924ZM229.31 205.357C229.31 203.627 232.077 202.222 235.477 202.222C238.885 202.222 241.65 203.627 241.65 205.357C241.65 207.083 238.883 208.483 235.477 208.483C232.075 208.483 229.31 207.083 229.31 205.357ZM290.644 208.22V202.483H297.662L300.1 205.319L297.662 208.22H290.644ZM271.926 205.357C271.926 203.627 274.68 202.222 278.094 202.222C281.496 202.222 284.261 203.627 284.261 205.357C284.261 207.083 281.496 208.483 278.094 208.483C274.68 208.483 271.926 207.083 271.926 205.357ZM249.032 202.483H264.534V208.215H249.032V202.483ZM8.40613 243.181H505.351V366.349H8.40613V243.181V243.181Z" fill="black"/>
<path fill-rule="evenodd" clip-rule="evenodd" d="M447.862 263.618C444.64 263.618 442.032 266.258 442.032 269.517C442.032 272.771 444.64 275.422 447.862 275.422C451.09 275.422 453.703 272.771 453.703 269.517C453.708 268.746 453.56 267.982 453.268 267.268C452.977 266.555 452.548 265.905 452.006 265.357C451.463 264.809 450.818 264.374 450.107 264.075C449.396 263.777 448.633 263.622 447.862 263.618V263.618ZM447.862 271.321C447.386 271.318 446.93 271.127 446.594 270.788C446.258 270.449 446.071 269.992 446.072 269.515C446.072 268.513 446.877 267.709 447.862 267.709C448.853 267.709 449.658 268.513 449.658 269.515C449.658 270.514 448.853 271.321 447.862 271.321ZM133.136 287.28C130.712 284.809 127.818 282.848 124.625 281.511C121.432 280.175 118.004 279.49 114.543 279.497C100.048 279.497 88.2571 291.413 88.2571 306.059C88.2331 313.091 91.0018 319.846 95.9548 324.838C98.3782 327.308 101.271 329.269 104.462 330.605C107.654 331.942 111.08 332.627 114.54 332.621C118.002 332.628 121.43 331.943 124.623 330.607C127.816 329.27 130.709 327.309 133.134 324.838C138.101 319.815 140.831 313.151 140.831 306.059C140.831 298.967 138.106 292.297 133.136 287.28V287.28ZM129.925 321.598C127.918 323.639 125.524 325.26 122.882 326.363C120.241 327.467 117.406 328.032 114.543 328.026C111.681 328.032 108.847 327.467 106.207 326.363C103.567 325.259 101.174 323.639 99.1688 321.598C95.0684 317.468 92.7763 311.879 92.7966 306.059C92.7966 293.941 102.555 284.089 114.543 284.089C120.355 284.089 125.816 286.371 129.925 290.528C131.955 292.572 133.562 294.996 134.655 297.661C135.748 300.327 136.305 303.181 136.295 306.062C136.305 308.943 135.748 311.798 134.655 314.463C133.562 317.129 131.955 319.553 129.925 321.598V321.598Z" fill="white"/>
<path fill-rule="evenodd" clip-rule="evenodd" d="M128.698 291.768C126.852 289.888 124.65 288.396 122.219 287.379C119.789 286.362 117.18 285.842 114.545 285.848C111.912 285.843 109.305 286.364 106.876 287.381C104.447 288.397 102.246 289.889 100.401 291.768C96.6293 295.567 94.5206 300.708 94.5389 306.062C94.5389 311.456 96.6214 316.53 100.401 320.349C102.245 322.229 104.446 323.722 106.875 324.739C109.304 325.756 111.912 326.277 114.545 326.273C125.582 326.273 134.56 317.204 134.56 306.062C134.577 300.709 132.468 295.568 128.698 291.768V291.768ZM114.543 321.685C112.507 321.689 110.492 321.287 108.614 320.501C106.737 319.715 105.035 318.562 103.61 317.109C100.691 314.152 99.0784 310.229 99.0784 306.059C99.0784 301.889 100.691 297.965 103.61 295.009C105.036 293.557 106.737 292.404 108.615 291.618C110.492 290.832 112.508 290.429 114.543 290.432C118.679 290.432 122.562 292.055 125.481 295.009C128.396 297.946 130.027 301.92 130.015 306.059C130.015 314.678 123.075 321.685 114.543 321.685ZM185.171 281.029V327.431C185.186 332.003 183.384 336.394 180.162 339.639C178.587 341.246 176.707 342.522 174.632 343.391C172.557 344.261 170.329 344.706 168.079 344.701C165.829 344.704 163.601 344.257 161.526 343.388C159.451 342.518 157.57 341.244 155.993 339.639C153.711 337.332 152.128 334.428 151.424 331.261H146.795C147.556 335.658 149.647 339.716 152.787 342.887C154.781 344.919 157.161 346.532 159.787 347.632C162.413 348.731 165.232 349.294 168.079 349.289C173.861 349.289 179.288 347.018 183.376 342.887C187.464 338.757 189.711 333.274 189.711 327.433V281.032H185.171V281.029V281.029Z" fill="white"/>
<path fill-rule="evenodd" clip-rule="evenodd" d="M168.079 328.39C171.9 328.379 175.642 327.303 178.884 325.282V327.431C178.884 333.45 174.037 338.345 168.079 338.345C166.656 338.348 165.248 338.066 163.936 337.518C162.623 336.969 161.434 336.164 160.437 335.15C159.353 334.041 158.517 332.715 157.985 331.258H153.223C153.891 333.956 155.277 336.423 157.233 338.398C158.647 339.84 160.335 340.984 162.198 341.765C164.06 342.545 166.059 342.946 168.079 342.943C176.547 342.943 183.432 335.981 183.432 327.431V313.557C182.541 315.483 181.327 317.242 179.84 318.756C176.621 322.009 172.443 323.802 168.079 323.802C165.83 323.805 163.603 323.36 161.527 322.493C159.452 321.625 157.571 320.353 155.993 318.75C152.774 315.503 150.975 311.11 150.991 306.537V281.027H146.452V306.537C146.441 309.402 146.995 312.241 148.082 314.892C149.169 317.542 150.768 319.953 152.787 321.986C154.781 324.018 157.16 325.631 159.786 326.731C162.412 327.831 165.232 328.395 168.079 328.39V328.39Z" fill="white"/>
<path fill-rule="evenodd" clip-rule="evenodd" d="M157.231 317.499C158.644 318.942 160.332 320.087 162.194 320.867C164.057 321.648 166.057 322.048 168.076 322.044C176.395 322.044 183.429 314.641 183.429 305.884V281.029H178.884V305.884C178.884 312.051 173.843 317.457 168.079 317.457C166.656 317.458 165.247 317.176 163.935 316.627C162.623 316.077 161.434 315.271 160.437 314.256C158.402 312.204 157.264 309.427 157.273 306.537V281.027H152.734V306.537C152.726 308.57 153.119 310.585 153.891 312.466C154.663 314.347 155.797 316.057 157.231 317.499ZM262.977 264.821H267.516V331.253H262.977V264.821ZM256.69 264.821H261.229V331.253H256.69V264.821ZM448.71 280.976H453.249V331.258H448.71V280.976ZM442.42 280.976H446.959V331.258H442.42V280.976ZM469.279 264.821H473.819V331.253H469.279V264.821ZM463.003 264.821H467.542V331.253H463.003V264.821ZM208.647 292.842C204.987 296.542 202.968 301.458 202.968 306.688C202.968 311.919 204.984 316.835 208.647 320.535C210.433 322.357 212.565 323.804 214.919 324.789C217.272 325.774 219.799 326.279 222.35 326.273C233.039 326.273 241.735 317.483 241.735 306.688V287.104H222.35C219.799 287.099 217.273 287.604 214.919 288.589C212.566 289.575 210.433 291.02 208.647 292.842V292.842ZM237.196 306.688C237.196 314.957 230.539 321.685 222.353 321.685C220.4 321.689 218.465 321.302 216.664 320.547C214.862 319.793 213.229 318.686 211.861 317.292C209.061 314.461 207.51 310.699 207.51 306.688C207.51 302.678 209.061 298.916 211.861 296.08C213.23 294.687 214.864 293.582 216.665 292.829C218.467 292.075 220.4 291.689 222.353 291.692H237.196V306.688Z" fill="white"/>
<path fill-rule="evenodd" clip-rule="evenodd" d="M222.35 280.753C208.198 280.753 196.686 292.39 196.686 306.688C196.673 310.088 197.331 313.457 198.621 316.603C199.91 319.749 201.807 322.609 204.203 325.022C206.57 327.433 209.394 329.347 212.51 330.652C215.626 331.957 218.972 332.626 222.35 332.621C227.68 332.622 232.874 330.943 237.193 327.821V331.256H241.733V315.162C240.682 317.628 239.174 319.874 237.289 321.781C235.339 323.763 233.013 325.336 230.447 326.408C227.882 327.479 225.128 328.029 222.348 328.023C219.568 328.029 216.816 327.479 214.252 326.408C211.688 325.336 209.363 323.763 207.415 321.781C203.433 317.767 201.207 312.337 201.226 306.683C201.226 294.911 210.703 285.34 222.348 285.34H243.47V331.253H248.017V280.748H222.35V280.753V280.753ZM393.987 292.842C390.329 296.542 388.31 301.458 388.31 306.688C388.31 311.918 390.329 316.835 393.987 320.535C395.773 322.357 397.906 323.803 400.26 324.789C402.614 325.774 405.141 326.278 407.693 326.273C418.379 326.273 427.075 317.483 427.075 306.688V287.104H407.693C405.141 287.099 402.614 287.604 400.26 288.589C397.907 289.574 395.774 291.02 393.987 292.842V292.842ZM422.536 306.688C422.536 314.957 415.879 321.685 407.693 321.685C405.74 321.689 403.806 321.302 402.004 320.548C400.203 319.793 398.571 318.686 397.203 317.292C394.39 314.46 392.85 310.699 392.85 306.688C392.85 302.677 394.39 298.916 397.203 296.079C398.572 294.687 400.204 293.581 402.006 292.828C403.807 292.074 405.74 291.688 407.693 291.691H422.536V306.688Z" fill="white"/>
<path fill-rule="evenodd" clip-rule="evenodd" d="M407.693 280.753C393.54 280.753 382.028 292.39 382.028 306.689C382.015 310.088 382.672 313.458 383.962 316.603C385.252 319.749 387.149 322.61 389.545 325.022C391.912 327.433 394.736 329.347 397.852 330.652C400.969 331.957 404.314 332.627 407.693 332.621C413.022 332.622 418.216 330.943 422.535 327.821V331.256H427.075V315.162C426.021 317.629 424.511 319.875 422.623 321.781C420.675 323.763 418.352 325.337 415.788 326.408C413.224 327.48 410.472 328.029 407.693 328.023C404.913 328.029 402.16 327.48 399.595 326.408C397.031 325.336 394.706 323.763 392.757 321.781C388.775 317.767 386.55 312.337 386.568 306.683C386.568 294.911 396.045 285.341 407.693 285.341H428.812V331.253H433.352V280.748H407.693V280.753V280.753ZM71.6345 307.549C74.1456 306.482 76.4219 304.93 78.3334 302.983C82.6524 298.619 85.2289 292.395 85.2289 286.334C85.205 280.527 82.9103 274.959 78.8354 270.822C74.8432 266.79 69.637 264.654 63.7827 264.654H40.7614V331.158H45.3008V269.244H63.7827C68.4072 269.244 72.5004 270.915 75.6241 274.068C78.7956 277.268 80.6868 281.856 80.6868 286.331C80.6868 291.131 78.5486 296.266 75.1221 299.732C72.0701 302.813 68.2053 304.452 63.9394 304.495L82.594 331.134H88.1614L71.6345 307.549V307.549Z" fill="white"/>
<path fill-rule="evenodd" clip-rule="evenodd" d="M60.5847 302.752H63.7854C73.6771 302.752 78.9497 293.216 78.9497 286.337C78.9497 282.31 77.2444 278.193 74.3943 275.313C71.6079 272.495 67.9344 271.008 63.7827 271.008H47.0406V331.16H51.5881V275.597H63.7827C66.7444 275.597 69.2386 276.588 71.1803 278.559C73.2154 280.64 74.3687 283.426 74.3996 286.337C74.3996 291.296 70.7128 298.165 63.7827 298.165H51.8059L74.8963 331.139H80.4637L60.5847 302.752ZM367.491 264.837H362.89L374.61 331.357H379.223L367.491 264.837V264.837ZM337.481 304.473L319.313 264.837H314.322L337.481 315.393L360.638 264.837H355.647L337.481 304.473V304.473ZM295.739 331.357H300.355L312.074 264.837H307.442L295.739 331.357V331.357Z" fill="white"/>
<path fill-rule="evenodd" clip-rule="evenodd" d="M337.481 319.579L313.445 267.095L302.119 331.357H306.73L315.384 282.264L337.481 330.507L359.581 282.264L368.224 331.357H372.846L361.52 267.095L337.481 319.579Z" fill="white"/>
</svg>
